<svg xmlns="http://www.w3.org/2000/svg" version="1.1" xmlns:xlink="http://www.w3.org/1999/xlink" width="400" height="400"><svg xmlns="http://www.w3.org/2000/svg" version="1.1" xmlns:xlink="http://www.w3.org/1999/xlink" width="400" height="400"><svg xmlns="http://www.w3.org/2000/svg" viewBox="0 0 400 400" xmlns:bx="https://boxy-svg.com">
  <title>Artboard 21 – Premium</title>
  <defs>
    <linearGradient id="premiumGrad" x1="0%" y1="0%" x2="100%" y2="100%">
      <stop offset="0" style="stop-color:#c084fc;stop-opacity:1"></stop>
      <stop offset="0.35" style="stop-color:#a855f7;stop-opacity:1"></stop>
      <stop offset="0.65" style="stop-color:#7c3aed;stop-opacity:1"></stop>
      <stop offset="1" style="stop-color:#1a0533;stop-opacity:1"></stop>
    </linearGradient>
    <radialGradient id="shineGrad" cx="35%" cy="30%" r="55%">
      <stop offset="0" style="stop-color:#e9d5ff;stop-opacity:0.35"></stop>
      <stop offset="1" style="stop-color:#000000;stop-opacity:0"></stop>
    </radialGradient>
    <filter id="glow">
      <feGaussianBlur stdDeviation="3.5" result="blur"></feGaussianBlur>
      <feMerge>
        <feMergeNode in="blur"></feMergeNode>
        <feMergeNode in="SourceGraphic"></feMergeNode>
      </feMerge>
    </filter>
    <linearGradient gradientUnits="userSpaceOnUse" x1="124.955" y1="-64.935" x2="124.955" y2="275.3" id="gradient-0" gradientTransform="matrix(0.778277, -0.627921, 0.830857, 1.029804, 25.502915, 151.733472)">
      <stop offset="0" style="stop-color: rgb(255, 255, 255)"></stop>
      <stop offset="1" style="stop-color: rgb(240, 195, 255);"></stop>
    </linearGradient>
  </defs>
  <ellipse style="fill: rgb(255, 255, 255); stroke-opacity: 0.9; stroke: rgb(255, 255, 255);" cx="200" cy="200" rx="195" ry="195"></ellipse>
  <path d="M 86.857 -47.876 Q 124.955 -81.994 163.053 -47.876 L 239.249 20.361 Q 277.347 54.48 262.794 109.685 L 233.69 220.095 Q 219.138 275.3 172.047 275.3 L 77.863 275.3 Q 30.772 275.3 16.22 220.095 L -12.884 109.685 Q -27.437 54.48 10.661 20.361 Z" bx:shape="n-gon 124.955 115.513 160.234 197.507 5 0.25 1@b3aa2bdd" transform="matrix(0.998947, -0.04588, 0.04588, 0.998947, 79.872991, 88.287118)" style="stroke-width: 1; transform-box: fill-box; transform-origin: 50% 50%; fill: url(&quot;#gradient-0&quot;);"></path>
  <path filter="url(#glow)" opacity="0.5" fill="#9333ea" d="M200.5,13.25C97.5,13.25,14,96.75,14,199.75s83.5,186.5,186.5,186.5S387,302.75,387,199.75,303.5,13.25,200.5,13.25Zm-17,242.34c-4.19,11.49-3.72,85.42-3.72,85.42S164,256.23,158.69,233.77C148.78,191.43,87.09,201,87.09,201s34-6.23,42.15-17.65c26.64-37.1,24.92-92.67,24.92-92.67s6.56,84.14,14,106.12c10,29.47,52,37.41,52,37.41S191.7,233.15,183.54,255.59Zm91.88-45.91c-26.63,37.11-24.91,92.67-24.91,92.67s-6.56-84.13-14-106.12c-10-29.47-41.17-28.66-41.17-28.66s17.66-7.68,25.83-30.12C225.31,126,224.85,52,224.85,52S240.72,136.82,246,159.27c9.92,42.34,71.61,32.76,71.61,32.76S283.62,198.27,275.42,209.68Z"></path>
  <path fill="url(#premiumGrad)" d="M200.5,13.25C97.5,13.25,14,96.75,14,199.75s83.5,186.5,186.5,186.5S387,302.75,387,199.75,303.5,13.25,200.5,13.25Zm-17,242.34c-4.19,11.49-3.72,85.42-3.72,85.42S164,256.23,158.69,233.77C148.78,191.43,87.09,201,87.09,201s34-6.23,42.15-17.65c26.64-37.1,24.92-92.67,24.92-92.67s6.56,84.14,14,106.12c10,29.47,52,37.41,52,37.41S191.7,233.15,183.54,255.59Zm91.88-45.91c-26.63,37.11-24.91,92.67-24.91,92.67s-6.56-84.13-14-106.12c-10-29.47-41.17-28.66-41.17-28.66s17.66-7.68,25.83-30.12C225.31,126,224.85,52,224.85,52S240.72,136.82,246,159.27c9.92,42.34,71.61,32.76,71.61,32.76S283.62,198.27,275.42,209.68Z"></path>
  <path fill="url(#shineGrad)" d="M200.5,13.25C97.5,13.25,14,96.75,14,199.75s83.5,186.5,186.5,186.5S387,302.75,387,199.75,303.5,13.25,200.5,13.25Zm-17,242.34c-4.19,11.49-3.72,85.42-3.72,85.42S164,256.23,158.69,233.77C148.78,191.43,87.09,201,87.09,201s34-6.23,42.15-17.65c26.64-37.1,24.92-92.67,24.92-92.67s6.56,84.14,14,106.12c10,29.47,52,37.41,52,37.41S191.7,233.15,183.54,255.59Zm91.88-45.91c-26.63,37.11-24.91,92.67-24.91,92.67s-6.56-84.13-14-106.12c-10-29.47-41.17-28.66-41.17-28.66s17.66-7.68,25.83-30.12C225.31,126,224.85,52,224.85,52S240.72,136.82,246,159.27c9.92,42.34,71.61,32.76,71.61,32.76S283.62,198.27,275.42,209.68Z"></path>
</svg></svg><style>@media (prefers-color-scheme: light) { :root { filter: none; } }
@media (prefers-color-scheme: dark) { :root { filter: none; } }
</style></svg>