<svg xmlns="http://www.w3.org/2000/svg" viewBox="0 0 400 400">
  <title>Artboard 21 – Premium</title>
  <defs>
    <linearGradient id="premiumGrad" x1="0%" y1="0%" x2="100%" y2="100%">
      <stop offset="0%" style="stop-color:#6b21a8;stop-opacity:1" />
      <stop offset="45%" style="stop-color:#3b0764;stop-opacity:1" />
      <stop offset="75%" style="stop-color:#0d0012;stop-opacity:1" />
      <stop offset="100%" style="stop-color:#000000;stop-opacity:1" />
    </linearGradient>
    <radialGradient id="shineGrad" cx="35%" cy="30%" r="55%">
      <stop offset="0%" style="stop-color:#c084fc;stop-opacity:0.18" />
      <stop offset="100%" style="stop-color:#000000;stop-opacity:0" />
    </radialGradient>
    <filter id="glow">
      <feGaussianBlur stdDeviation="3.5" result="blur" />
      <feMerge>
        <feMergeNode in="blur" />
        <feMergeNode in="SourceGraphic" />
      </feMerge>
    </filter>
  </defs>

  <!-- Glow layer (soft purple bloom underneath) -->
  <path filter="url(#glow)" opacity="0.3"
    fill="#4a0080"
    d="M200.5,13.25C97.5,13.25,14,96.75,14,199.75s83.5,186.5,186.5,186.5S387,302.75,387,199.75,303.5,13.25,200.5,13.25Zm-17,242.34c-4.19,11.49-3.72,85.42-3.72,85.42S164,256.23,158.69,233.77C148.78,191.43,87.09,201,87.09,201s34-6.23,42.15-17.65c26.64-37.1,24.92-92.67,24.92-92.67s6.56,84.14,14,106.12c10,29.47,52,37.41,52,37.41S191.7,233.15,183.54,255.59Zm91.88-45.91c-26.63,37.11-24.91,92.67-24.91,92.67s-6.56-84.13-14-106.12c-10-29.47-41.17-28.66-41.17-28.66s17.66-7.68,25.83-30.12C225.31,126,224.85,52,224.85,52S240.72,136.82,246,159.27c9.92,42.34,71.61,32.76,71.61,32.76S283.62,198.27,275.42,209.68Z"/>

  <!-- Main gradient fill -->
  <path fill="url(#premiumGrad)"
    d="M200.5,13.25C97.5,13.25,14,96.75,14,199.75s83.5,186.5,186.5,186.5S387,302.75,387,199.75,303.5,13.25,200.5,13.25Zm-17,242.34c-4.19,11.49-3.72,85.42-3.72,85.42S164,256.23,158.69,233.77C148.78,191.43,87.09,201,87.09,201s34-6.23,42.15-17.65c26.64-37.1,24.92-92.67,24.92-92.67s6.56,84.14,14,106.12c10,29.47,52,37.41,52,37.41S191.7,233.15,183.54,255.59Zm91.88-45.91c-26.63,37.11-24.91,92.67-24.91,92.67s-6.56-84.13-14-106.12c-10-29.47-41.17-28.66-41.17-28.66s17.66-7.68,25.83-30.12C225.31,126,224.85,52,224.85,52S240.72,136.82,246,159.27c9.92,42.34,71.61,32.76,71.61,32.76S283.62,198.27,275.42,209.68Z"/>

  <!-- Specular shine overlay -->
  <path fill="url(#shineGrad)"
    d="M200.5,13.25C97.5,13.25,14,96.75,14,199.75s83.5,186.5,186.5,186.5S387,302.75,387,199.75,303.5,13.25,200.5,13.25Zm-17,242.34c-4.19,11.49-3.72,85.42-3.72,85.42S164,256.23,158.69,233.77C148.78,191.43,87.09,201,87.09,201s34-6.23,42.15-17.65c26.64-37.1,24.92-92.67,24.92-92.67s6.56,84.14,14,106.12c10,29.47,52,37.41,52,37.41S191.7,233.15,183.54,255.59Zm91.88-45.91c-26.63,37.11-24.91,92.67-24.91,92.67s-6.56-84.13-14-106.12c-10-29.47-41.17-28.66-41.17-28.66s17.66-7.68,25.83-30.12C225.31,126,224.85,52,224.85,52S240.72,136.82,246,159.27c9.92,42.34,71.61,32.76,71.61,32.76S283.62,198.27,275.42,209.68Z"/>
</svg>