<svg xmlns="http://www.w3.org/2000/svg" viewBox="0 0 400 400"><title>Artboard 21</title><path d="M200.5,13.25C97.5,13.25,14,96.75,14,199.75s83.5,186.5,186.5,186.5S387,302.75,387,199.75,303.5,13.25,200.5,13.25Zm-17,242.34c-4.19,11.49-3.72,85.42-3.72,85.42S164,256.23,158.69,233.77C148.78,191.43,87.09,201,87.09,201s34-6.23,42.15-17.65c26.64-37.1,24.92-92.67,24.92-92.67s6.56,84.14,14,106.12c10,29.47,52,37.41,52,37.41S191.7,233.15,183.54,255.59Zm91.88-45.91c-26.63,37.11-24.91,92.67-24.91,92.67s-6.56-84.13-14-106.12c-10-29.47-41.17-28.66-41.17-28.66s17.66-7.68,25.83-30.12C225.31,126,224.85,52,224.85,52S240.72,136.82,246,159.27c9.92,42.34,71.61,32.76,71.61,32.76S283.62,198.27,275.42,209.68Z"/></svg>